<svg width="432" height="258" viewBox="0 0 432 258" fill="none" xmlns="http://www.w3.org/2000/svg">
<path d="M386.013 217V16H393.513V217H386.013ZM353.013 217V16H360.513V217H353.013ZM369.513 217V16H377.013V217H369.513ZM252.513 217V16H260.013V217H252.513ZM219.513 217V16H227.013V217H219.513ZM236.013 217V16H243.513V217H236.013ZM344.013 147.75L269.013 40V26.75L344.013 134.5V147.75ZM344.013 176.75L269.013 69V55.75L344.013 163.5V176.75ZM344.013 205.75L269.013 98V84.75L344.013 192.5V205.75Z" fill="#364959"/>
<path d="M57.3525 217V16H64.8525V217H57.3525ZM24.3525 217V16H31.8525V217H24.3525ZM40.8525 217V16H48.3525V217H40.8525ZM219.103 217V16H226.603V217H219.103ZM186.103 217V16H193.603V217H186.103ZM202.603 217V16H210.103V217H202.603ZM134.853 101L130.353 94.25L177.103 26.5V39.75L134.853 101ZM144.853 144.25L73.8525 42.75V30L149.603 137.75L144.853 144.25ZM145.103 115.5L140.603 108.75L177.103 56.75V69.75L145.103 115.5ZM134.853 159L73.8525 72V58.75L139.353 152.25L134.853 159ZM155.103 129.75L150.603 123.25L177.103 85.5V98.5L155.103 129.75ZM124.853 173.25L73.8525 100.75V87.5L129.353 166.75L124.853 173.25Z" fill="#364959"/>
<path d="M188.5 216H257.5" stroke="#364959" stroke-width="2" stroke-linecap="square"/>
<path d="M189 18H257.5" stroke="#364959" stroke-width="5" stroke-linecap="square"/>
<path d="M188.5 23H257.5" stroke="#364959" stroke-linecap="square"/>
<path d="M45 203.5L45 29.5" stroke="#364959" stroke-width="27" stroke-linecap="square"/>
<path d="M373 203.5V29.5" stroke="#364959" stroke-width="27" stroke-linecap="square"/>
<path d="M169.181 191.621C169.9 193.379 171.318 194.896 173.454 196.174C175.232 197.253 178.546 198.59 181.043 199.249C183.099 199.789 183.419 199.809 187.493 199.809C192.105 199.789 193.803 199.589 199.634 198.291L202.27 197.712L206.723 202.185C209.159 204.641 211.815 207.157 212.614 207.776C217.206 211.391 221.42 213.487 226.033 214.506C228.988 215.165 233.142 215.165 235.698 214.506C239.891 213.427 243.526 211.251 246.421 208.116C251.353 202.784 253.67 195.435 252.492 188.826C252.332 187.967 252.232 187.208 252.272 187.188C252.352 187.108 260.559 185.371 261.977 185.131C263.874 184.792 267.149 184.892 268.806 185.311C271.782 186.07 274.118 187.667 275.057 189.584C276.574 192.7 276.375 198.091 274.677 199.689L274.218 200.128L274.098 198.91C273.779 195.915 271.702 193.698 268.707 193.139C264.813 192.42 261.138 195.455 261.158 199.409C261.158 200.907 261.398 201.686 262.177 202.904C264.373 206.318 268.986 206.738 273.239 203.902C275.516 202.365 277.173 200.068 277.852 197.492C278.012 196.893 278.152 195.555 278.152 194.497C278.152 189.545 275.915 185.671 271.922 183.753C268.527 182.136 265.012 181.936 259.681 183.114C252.911 184.612 251.493 184.892 251.433 184.732C251.214 184.133 249.716 181.916 248.937 181.018C245.323 176.944 238.573 174.388 233.301 175.127C230.027 175.586 228.01 176.625 225.474 179.181C223.716 180.958 222.918 182.076 222.079 183.893C221.2 185.81 220.781 187.847 220.881 189.864L220.961 191.501L219.563 191.821C218.784 191.981 216.328 192.52 214.091 192.999L210.018 193.878L208.001 192.28C201.73 187.368 196.059 184.512 189.689 183.114C187.892 182.715 187.033 182.635 183.698 182.635C179.705 182.635 178.646 182.775 176.11 183.574C173.035 184.552 170.399 186.389 169.481 188.187C169.001 189.165 168.842 190.823 169.181 191.621ZM177.488 186.869C178.287 186.21 179.824 185.87 182.001 185.87C184.817 185.85 187.872 186.649 191.406 188.326C194.641 189.844 196.898 191.581 199.554 194.597L200.672 195.875L199.334 196.194C196.139 196.913 194.282 197.133 191.486 197.133C189.03 197.133 188.291 197.053 186.594 196.634C181.142 195.236 176.989 191.601 176.929 188.187C176.909 187.508 177.009 187.268 177.488 186.869ZM216.488 194.736C218.824 194.237 220.941 193.818 221.16 193.758C221.52 193.698 221.68 193.898 222.219 195.036C224.855 200.667 231.205 204.322 236.417 203.223C238.693 202.744 239.891 202.065 241.708 200.228C243.086 198.85 243.486 198.271 244.464 196.334C245.742 193.758 245.922 193.039 244.963 194.217C242.327 197.472 241.209 198.111 238.054 198.251C235.678 198.371 234.16 198.091 232.463 197.233C230.865 196.434 229.148 194.317 228.749 192.68C228.629 192.18 228.689 192.14 229.687 191.921C230.246 191.801 233.501 191.122 236.916 190.403C240.311 189.684 244.544 188.786 246.301 188.426C248.039 188.047 249.536 187.787 249.616 187.847C249.916 188.027 250.275 190.743 250.255 192.72C250.195 199.489 246.621 204.901 240.291 207.816C237.775 208.994 236.077 209.354 233.022 209.354C230.506 209.374 230.206 209.334 228.529 208.755C226.632 208.096 224.895 207.177 223.537 206.099C222.858 205.56 219.782 202.764 214.95 198.291C214.391 197.792 213.572 197.033 213.093 196.614C212.634 196.214 212.254 195.815 212.254 195.735C212.254 195.675 214.171 195.216 216.488 194.736ZM228.888 186.709C230.086 183.214 232.323 181.018 235.718 180.039C238.394 179.26 242.867 180.059 245.443 181.797C246.581 182.555 248.598 184.832 248.598 185.331C248.598 185.431 248.398 185.571 248.138 185.631C247.899 185.671 245.622 186.17 243.106 186.709C231.904 189.125 229.108 189.744 228.769 189.844C228.469 189.944 228.429 189.804 228.429 188.985C228.429 188.466 228.649 187.428 228.888 186.709Z" fill="#364959"/>
</svg>
