<svg width="432" height="278" viewBox="0 0 432 278" fill="none" xmlns="http://www.w3.org/2000/svg">
<path d="M386.013 217V16H393.513V217H386.013ZM353.013 217V16H360.513V217H353.013ZM369.513 217V16H377.013V217H369.513ZM252.513 217V16H260.013V217H252.513ZM219.513 217V16H227.013V217H219.513ZM236.013 217V16H243.513V217H236.013ZM344.013 147.75L269.013 40V26.75L344.013 134.5V147.75ZM344.013 176.75L269.013 69V55.75L344.013 163.5V176.75ZM344.013 205.75L269.013 98V84.75L344.013 192.5V205.75Z" fill="#E5E5E5"/>
<path d="M57.3525 217V16H64.8525V217H57.3525ZM24.3525 217V16H31.8525V217H24.3525ZM40.8525 217V16H48.3525V217H40.8525ZM219.103 217V16H226.603V217H219.103ZM186.103 217V16H193.603V217H186.103ZM202.603 217V16H210.103V217H202.603ZM134.853 101L130.353 94.25L177.103 26.5V39.75L134.853 101ZM144.853 144.25L73.8525 42.75V30L149.603 137.75L144.853 144.25ZM145.103 115.5L140.603 108.75L177.103 56.75V69.75L145.103 115.5ZM134.853 159L73.8525 72V58.75L139.353 152.25L134.853 159ZM155.103 129.75L150.603 123.25L177.103 85.5V98.5L155.103 129.75ZM124.853 173.25L73.8525 100.75V87.5L129.353 166.75L124.853 173.25Z" fill="#E5E5E5"/>
<path d="M188.5 216H257.5" stroke="#E5E5E5" stroke-width="2" stroke-linecap="square"/>
<path d="M189 18H257.5" stroke="#E5E5E5" stroke-width="5" stroke-linecap="square"/>
<path d="M188.5 23H257.5" stroke="#E5E5E5" stroke-linecap="square"/>
<path d="M45 203.5L45 29.5" stroke="#E5E5E5" stroke-width="27" stroke-linecap="square"/>
<path d="M373 203.5V29.5" stroke="#E5E5E5" stroke-width="27" stroke-linecap="square"/>
<path d="M169.181 191.621C169.9 193.379 171.318 194.896 173.454 196.174C175.232 197.253 178.546 198.59 181.043 199.249C183.099 199.789 183.419 199.809 187.493 199.809C192.105 199.789 193.803 199.589 199.634 198.291L202.27 197.712L206.723 202.185C209.159 204.641 211.815 207.157 212.614 207.776C217.206 211.391 221.42 213.487 226.033 214.506C228.988 215.165 233.142 215.165 235.698 214.506C239.891 213.427 243.526 211.251 246.421 208.116C251.353 202.784 253.67 195.435 252.492 188.826C252.332 187.967 252.232 187.208 252.272 187.188C252.352 187.108 260.559 185.371 261.977 185.131C263.874 184.792 267.149 184.892 268.806 185.311C271.782 186.07 274.118 187.667 275.057 189.584C276.574 192.7 276.375 198.091 274.677 199.689L274.218 200.128L274.098 198.91C273.779 195.915 271.702 193.698 268.707 193.139C264.813 192.42 261.138 195.455 261.158 199.409C261.158 200.907 261.398 201.686 262.177 202.904C264.373 206.318 268.986 206.738 273.239 203.902C275.516 202.365 277.173 200.068 277.852 197.492C278.012 196.893 278.152 195.555 278.152 194.497C278.152 189.545 275.915 185.671 271.922 183.753C268.527 182.136 265.012 181.936 259.681 183.114C252.911 184.612 251.493 184.892 251.433 184.732C251.214 184.133 249.716 181.916 248.937 181.018C245.323 176.944 238.573 174.388 233.301 175.127C230.027 175.586 228.01 176.625 225.474 179.181C223.716 180.958 222.918 182.076 222.079 183.893C221.2 185.81 220.781 187.847 220.881 189.864L220.961 191.501L219.563 191.821C218.784 191.981 216.328 192.52 214.091 192.999L210.018 193.878L208.001 192.28C201.73 187.368 196.059 184.512 189.689 183.114C187.892 182.715 187.033 182.635 183.698 182.635C179.705 182.635 178.646 182.775 176.11 183.574C173.035 184.552 170.399 186.389 169.481 188.187C169.001 189.165 168.842 190.823 169.181 191.621ZM177.488 186.869C178.287 186.21 179.824 185.87 182.001 185.87C184.817 185.85 187.872 186.649 191.406 188.326C194.641 189.844 196.898 191.581 199.554 194.597L200.672 195.875L199.334 196.194C196.139 196.913 194.282 197.133 191.486 197.133C189.03 197.133 188.291 197.053 186.594 196.634C181.142 195.236 176.989 191.601 176.929 188.187C176.909 187.508 177.009 187.268 177.488 186.869ZM216.488 194.736C218.824 194.237 220.941 193.818 221.16 193.758C221.52 193.698 221.68 193.898 222.219 195.036C224.855 200.667 231.205 204.322 236.417 203.223C238.693 202.744 239.891 202.065 241.708 200.228C243.086 198.85 243.486 198.271 244.464 196.334C245.742 193.758 245.922 193.039 244.963 194.217C242.327 197.472 241.209 198.111 238.054 198.251C235.678 198.371 234.16 198.091 232.463 197.233C230.865 196.434 229.148 194.317 228.749 192.68C228.629 192.18 228.689 192.14 229.687 191.921C230.246 191.801 233.501 191.122 236.916 190.403C240.311 189.684 244.544 188.786 246.301 188.426C248.039 188.047 249.536 187.787 249.616 187.847C249.916 188.027 250.275 190.743 250.255 192.72C250.195 199.489 246.621 204.901 240.291 207.816C237.775 208.994 236.077 209.354 233.022 209.354C230.506 209.374 230.206 209.334 228.529 208.755C226.632 208.096 224.895 207.177 223.537 206.099C222.858 205.56 219.782 202.764 214.95 198.291C214.391 197.792 213.572 197.033 213.093 196.614C212.634 196.214 212.254 195.815 212.254 195.735C212.254 195.675 214.171 195.216 216.488 194.736ZM228.888 186.709C230.086 183.214 232.323 181.018 235.718 180.039C238.394 179.26 242.867 180.059 245.443 181.797C246.581 182.555 248.598 184.832 248.598 185.331C248.598 185.431 248.398 185.571 248.138 185.631C247.899 185.671 245.622 186.17 243.106 186.709C231.904 189.125 229.108 189.744 228.769 189.844C228.469 189.944 228.429 189.804 228.429 188.985C228.429 188.466 228.649 187.428 228.888 186.709Z" fill="#E5E5E5"/>
<path d="M354.146 246.146C354.342 245.951 354.658 245.951 354.854 246.146L357.854 249.146C358.049 249.342 358.049 249.658 357.854 249.854L347.854 259.854C347.806 259.901 347.749 259.939 347.686 259.964L342.686 261.964C342.5 262.039 342.288 261.995 342.146 261.854C342.005 261.712 341.961 261.5 342.036 261.314L344.036 256.314C344.061 256.251 344.099 256.194 344.146 256.146L354.146 246.146ZM353.207 248.5L355.5 250.793L356.793 249.5L354.5 247.207L353.207 248.5ZM354.793 251.5L352.5 249.207L346 255.707V256H346.5C346.776 256 347 256.224 347 256.5V257H347.5C347.776 257 348 257.224 348 257.5V258H348.293L354.793 251.5ZM345.032 256.675L344.926 256.781L343.398 260.602L347.219 259.074L347.325 258.968C347.135 258.897 347 258.714 347 258.5V258H346.5C346.224 258 346 257.776 346 257.5V257H345.5C345.286 257 345.103 256.865 345.032 256.675Z" fill="#E5E5E5"/>
<path d="M135.8 230.52V258H134V234.28L123.44 258H122L111.4 234.28V258H109.6V230.52H111.52L122.72 255.64L133.92 230.52H135.8ZM160.773 236.28V258H158.973V253.28C158.359 254.933 157.333 256.2 155.893 257.08C154.479 257.933 152.853 258.36 151.013 258.36C148.426 258.36 146.306 257.573 144.653 256C143.026 254.4 142.213 252.04 142.213 248.92V236.28H143.973V248.8C143.973 251.387 144.626 253.373 145.933 254.76C147.239 256.12 149.013 256.8 151.253 256.8C153.599 256.8 155.466 256.053 156.853 254.56C158.266 253.067 158.973 250.853 158.973 247.92V236.28H160.773ZM174.575 258.32C172.148 258.32 170.161 257.787 168.615 256.72C167.095 255.653 166.241 254.133 166.055 252.16H167.895C168.028 253.573 168.668 254.693 169.815 255.52C170.988 256.347 172.575 256.76 174.575 256.76C176.228 256.76 177.535 256.347 178.495 255.52C179.481 254.667 179.975 253.627 179.975 252.4C179.975 251.547 179.708 250.853 179.175 250.32C178.668 249.76 178.028 249.333 177.255 249.04C176.481 248.747 175.428 248.427 174.095 248.08C172.495 247.653 171.201 247.24 170.215 246.84C169.228 246.413 168.388 245.787 167.695 244.96C167.001 244.133 166.655 243.027 166.655 241.64C166.655 240.627 166.961 239.693 167.575 238.84C168.188 237.96 169.041 237.267 170.135 236.76C171.228 236.253 172.468 236 173.855 236C176.121 236 177.948 236.573 179.335 237.72C180.748 238.84 181.508 240.4 181.615 242.4H179.815C179.735 240.96 179.175 239.787 178.135 238.88C177.095 237.973 175.655 237.52 173.815 237.52C172.268 237.52 170.988 237.92 169.975 238.72C168.961 239.52 168.455 240.493 168.455 241.64C168.455 242.653 168.735 243.48 169.295 244.12C169.881 244.733 170.588 245.213 171.415 245.56C172.268 245.88 173.388 246.227 174.775 246.6C176.295 247 177.508 247.4 178.415 247.8C179.348 248.173 180.135 248.733 180.775 249.48C181.415 250.2 181.735 251.173 181.735 252.4C181.735 253.52 181.428 254.533 180.815 255.44C180.201 256.347 179.348 257.053 178.255 257.56C177.161 258.067 175.935 258.32 174.575 258.32ZM188.138 231.44C187.711 231.44 187.351 231.307 187.058 231.04C186.764 230.747 186.618 230.36 186.618 229.88C186.618 229.427 186.764 229.053 187.058 228.76C187.351 228.467 187.711 228.32 188.138 228.32C188.564 228.32 188.924 228.467 189.217 228.76C189.511 229.053 189.658 229.427 189.658 229.88C189.658 230.36 189.511 230.747 189.217 231.04C188.924 231.307 188.564 231.44 188.138 231.44ZM189.018 236.28V258H187.218V236.28H189.018ZM194.496 247.12C194.496 244.853 194.936 242.88 195.816 241.2C196.723 239.52 197.963 238.24 199.536 237.36C201.136 236.453 202.963 236 205.016 236C207.736 236 209.963 236.68 211.696 238.04C213.456 239.4 214.549 241.227 214.976 243.52H213.096C212.749 241.653 211.843 240.187 210.376 239.12C208.936 238.053 207.149 237.52 205.016 237.52C203.416 237.52 201.963 237.88 200.656 238.6C199.349 239.293 198.296 240.373 197.496 241.84C196.723 243.28 196.336 245.04 196.336 247.12C196.336 249.227 196.723 251 197.496 252.44C198.296 253.88 199.349 254.96 200.656 255.68C201.963 256.4 203.416 256.76 205.016 256.76C207.149 256.76 208.936 256.227 210.376 255.16C211.843 254.093 212.749 252.627 213.096 250.76H214.976C214.549 253.027 213.456 254.853 211.696 256.24C209.936 257.627 207.709 258.32 205.016 258.32C202.963 258.32 201.136 257.867 199.536 256.96C197.963 256.053 196.723 254.76 195.816 253.08C194.936 251.373 194.496 249.387 194.496 247.12ZM251.829 258H250.029L233.549 232.88V258H231.749V229.96H233.549L250.029 255V229.96H251.829V258ZM267.988 258.32C265.962 258.32 264.135 257.867 262.508 256.96C260.882 256.053 259.602 254.76 258.668 253.08C257.762 251.373 257.308 249.387 257.308 247.12C257.308 244.88 257.775 242.92 258.708 241.24C259.642 239.533 260.922 238.24 262.548 237.36C264.202 236.453 266.042 236 268.068 236C270.095 236 271.922 236.453 273.548 237.36C275.175 238.24 276.442 239.52 277.348 241.2C278.282 242.88 278.748 244.853 278.748 247.12C278.748 249.387 278.282 251.373 277.348 253.08C276.415 254.76 275.122 256.053 273.468 256.96C271.842 257.867 270.015 258.32 267.988 258.32ZM267.988 256.72C269.562 256.72 271.028 256.373 272.388 255.68C273.775 254.96 274.882 253.88 275.708 252.44C276.535 251 276.948 249.227 276.948 247.12C276.948 245.04 276.535 243.28 275.708 241.84C274.882 240.4 273.788 239.333 272.428 238.64C271.068 237.92 269.602 237.56 268.028 237.56C266.455 237.56 264.988 237.92 263.628 238.64C262.295 239.333 261.215 240.4 260.388 241.84C259.562 243.28 259.148 245.04 259.148 247.12C259.148 249.227 259.548 251 260.348 252.44C261.175 253.88 262.255 254.96 263.588 255.68C264.948 256.373 266.415 256.72 267.988 256.72ZM286.89 237.84V252.2C286.89 253.8 287.183 254.907 287.77 255.52C288.356 256.107 289.396 256.4 290.89 256.4H293.33V258H290.61C288.716 258 287.316 257.56 286.41 256.68C285.53 255.773 285.09 254.28 285.09 252.2V237.84H281.81V236.28H285.09V230.76H286.89V236.28H293.33V237.84H286.89ZM317.637 245.68C317.637 246.64 317.61 247.36 317.557 247.84H298.797C298.85 249.787 299.277 251.427 300.077 252.76C300.877 254.093 301.93 255.093 303.237 255.76C304.544 256.427 305.97 256.76 307.517 256.76C309.65 256.76 311.437 256.24 312.877 255.2C314.317 254.133 315.224 252.693 315.597 250.88H317.477C317.05 253.093 315.957 254.893 314.197 256.28C312.437 257.64 310.21 258.32 307.517 258.32C305.49 258.32 303.677 257.867 302.077 256.96C300.477 256.053 299.224 254.76 298.317 253.08C297.41 251.373 296.957 249.387 296.957 247.12C296.957 244.853 297.397 242.88 298.277 241.2C299.184 239.52 300.437 238.24 302.037 237.36C303.637 236.453 305.464 236 307.517 236C309.597 236 311.397 236.453 312.917 237.36C314.464 238.24 315.637 239.427 316.437 240.92C317.237 242.387 317.637 243.973 317.637 245.68ZM315.837 246.36C315.917 244.44 315.57 242.813 314.797 241.48C314.05 240.147 313.024 239.16 311.717 238.52C310.41 237.853 308.997 237.52 307.477 237.52C305.957 237.52 304.544 237.853 303.237 238.52C301.957 239.16 300.904 240.147 300.077 241.48C299.277 242.813 298.85 244.44 298.797 246.36H315.837ZM330.317 258.32C327.89 258.32 325.904 257.787 324.357 256.72C322.837 255.653 321.984 254.133 321.797 252.16H323.637C323.77 253.573 324.41 254.693 325.557 255.52C326.73 256.347 328.317 256.76 330.317 256.76C331.97 256.76 333.277 256.347 334.237 255.52C335.224 254.667 335.717 253.627 335.717 252.4C335.717 251.547 335.45 250.853 334.917 250.32C334.41 249.76 333.77 249.333 332.997 249.04C332.224 248.747 331.17 248.427 329.837 248.08C328.237 247.653 326.944 247.24 325.957 246.84C324.97 246.413 324.13 245.787 323.437 244.96C322.744 244.133 322.397 243.027 322.397 241.64C322.397 240.627 322.704 239.693 323.317 238.84C323.93 237.96 324.784 237.267 325.877 236.76C326.97 236.253 328.21 236 329.597 236C331.864 236 333.69 236.573 335.077 237.72C336.49 238.84 337.25 240.4 337.357 242.4H335.557C335.477 240.96 334.917 239.787 333.877 238.88C332.837 237.973 331.397 237.52 329.557 237.52C328.01 237.52 326.73 237.92 325.717 238.72C324.704 239.52 324.197 240.493 324.197 241.64C324.197 242.653 324.477 243.48 325.037 244.12C325.624 244.733 326.33 245.213 327.157 245.56C328.01 245.88 329.13 246.227 330.517 246.6C332.037 247 333.25 247.4 334.157 247.8C335.09 248.173 335.877 248.733 336.517 249.48C337.157 250.2 337.477 251.173 337.477 252.4C337.477 253.52 337.17 254.533 336.557 255.44C335.944 256.347 335.09 257.053 333.997 257.56C332.904 258.067 331.677 258.32 330.317 258.32Z" fill="#E5E5E5"/>
<path d="M110.905 268.662C113.407 268.449 115.867 267.811 118.364 267.515C125.689 266.647 133.098 266.382 140.469 266.3C156.284 266.123 172.545 266.88 188.189 269.27C193.766 270.122 199.273 271.346 204.861 272.138C214.363 273.485 223.922 274.526 233.48 275.378C248.173 276.689 263.014 276.8 277.758 276.526C282.915 276.43 288.247 276.316 293.266 275.007C296.796 274.086 300.226 272.823 303.778 272.003C308.96 270.808 313.897 268.566 319.033 267.144C322.483 266.188 326.095 265.971 329.528 265.085C331.397 264.603 333.7 264.641 335.485 263.954C336.723 263.478 338.318 263.57 339.484 263.026C339.743 262.906 341.051 262.664 341.121 262.419C341.27 261.896 341.534 261.848 342.049 261.676" stroke="#E5E5E5" stroke-linecap="round"/>
</svg>
